# xmcd CD database file
#
# Track frame offsets:
#	150
#	11984
#	28989
#	50704
#	68908
#	87045
#	99774
#	120830
#	141444
#	158530
#
# Disc length: 2482 seconds
#
# Revision: 0
# Processed by: cddbd v1.5.2PL0 Copyright (c) Steve Scherf et al.
# Submitted via: CDex 1.51
#
DISCID=7c09b00a
DTITLE=Red White and Blues - Bye Bye Baby
DYEAR=2004
DGENRE=Blues
TTITLE0=Pussy Cat
TTITLE1=Bye Bye Baby
TTITLE2=Nothing Blues
TTITLE3=Hangover
TTITLE4=Shoot Shoot
TTITLE5=Love Machine
TTITLE6=Leave Me Be
TTITLE7=Damblues
TTITLE8=Start It Up
TTITLE9=Ride On A Pony
EXTD=YEAR: 2004
EXTT0=
EXTT1=
EXTT2=
EXTT3=
EXTT4=
EXTT5=
EXTT6=
EXTT7=
EXTT8=
EXTT9=
PLAYORDER=
